<svg width="122" height="30" viewBox="0 0 122 30" fill="none" xmlns="http://www.w3.org/2000/svg">
<path d="M7.15691 24C6.58236 24 6.1452 23.8126 5.84543 23.4379C5.57065 23.0632 5.43326 22.6011 5.43326 22.0515C5.43326 21.5769 5.5082 21.1148 5.65808 20.6651C5.83294 20.2155 6.00781 19.7158 6.18267 19.1663C6.38251 18.5917 6.51991 17.9048 6.59485 17.1054L6.48244 17.0304C5.85792 17.4301 5.33333 17.8548 4.90867 18.3044C4.50898 18.7291 4.15925 19.1413 3.85948 19.541C3.55972 19.9407 3.24746 20.2654 2.92272 20.5152C2.59797 20.765 2.19828 20.8899 1.72365 20.8899C1.12412 20.8899 0.686963 20.7026 0.412178 20.3279C0.137393 19.9532 0 19.566 0 19.1663C0 18.4918 0.362217 17.9547 1.08665 17.555C1.56128 17.2802 2.02342 17.1054 2.47307 17.0304C2.92272 16.9555 3.42233 16.8681 3.9719 16.7681C4.52147 16.6432 5.15847 16.4184 5.8829 16.0937V15.9438C5.15847 15.5941 4.52147 15.3692 3.9719 15.2693C3.42233 15.1694 2.92272 15.082 2.47307 15.007C2.02342 14.9321 1.56128 14.7572 1.08665 14.4824C0.362217 14.0827 0 13.5457 0 12.8712C0 12.4465 0.137393 12.0593 0.412178 11.7096C0.686963 11.3349 1.12412 11.1475 1.72365 11.1475C2.19828 11.1475 2.59797 11.2724 2.92272 11.5222C3.24746 11.7721 3.55972 12.0968 3.85948 12.4965C4.15925 12.8962 4.50898 13.3208 4.90867 13.7705C5.33333 14.1952 5.85792 14.6073 6.48244 15.007L6.59485 14.9321C6.54489 14.1077 6.41998 13.4208 6.22014 12.8712C6.0203 12.3216 5.83294 11.822 5.65808 11.3724C5.5082 10.8977 5.43326 10.4231 5.43326 9.94848C5.43326 9.37393 5.57065 8.91179 5.84543 8.56206C6.1452 8.18735 6.58236 8 7.15691 8C7.78142 8 8.23107 8.19984 8.50585 8.59953C8.80562 8.99922 8.95551 9.47385 8.95551 10.0234C8.95551 10.498 8.86807 10.9602 8.69321 11.4098C8.54333 11.8345 8.36846 12.3216 8.16862 12.8712C7.99376 13.4208 7.86885 14.1077 7.79391 14.9321L7.90632 15.007C8.50586 14.6323 9.00547 14.2326 9.40515 13.808C9.80484 13.3583 10.1546 12.9336 10.4543 12.534C10.7791 12.1093 11.1038 11.7721 11.4286 11.5222C11.7533 11.2724 12.1405 11.1475 12.5902 11.1475C13.2147 11.1475 13.6643 11.3599 13.9391 11.7845C14.2139 12.1842 14.3513 12.5714 14.3513 12.9461C14.3513 13.2709 14.2514 13.5706 14.0515 13.8454C13.8517 14.1202 13.5894 14.3575 13.2646 14.5574C12.865 14.7822 12.4278 14.9446 11.9532 15.0445C11.5035 15.1194 11.0039 15.2069 10.4543 15.3068C9.90476 15.4067 9.26776 15.619 8.54333 15.9438V16.0937C9.26776 16.4184 9.90476 16.6308 10.4543 16.7307C11.0039 16.8306 11.5035 16.918 11.9532 16.993C12.4278 17.0679 12.865 17.2303 13.2646 17.4801C13.5894 17.655 13.8517 17.8798 14.0515 18.1546C14.2514 18.4294 14.3513 18.7416 14.3513 19.0913C14.3513 19.466 14.2139 19.8657 13.9391 20.2904C13.6643 20.6901 13.2147 20.8899 12.5902 20.8899C12.1405 20.8899 11.7533 20.765 11.4286 20.5152C11.1038 20.2654 10.7791 19.9407 10.4543 19.541C10.1546 19.1163 9.80484 18.6916 9.40515 18.267C9.00547 17.8173 8.50586 17.4052 7.90632 17.0304L7.79391 17.1054C7.86885 17.8798 7.99376 18.5543 8.16862 19.1288C8.36846 19.6784 8.54333 20.178 8.69321 20.6276C8.86807 21.0523 8.95551 21.502 8.95551 21.9766C8.95551 22.5262 8.80562 23.0008 8.50585 23.4005C8.23107 23.8002 7.78142 24 7.15691 24Z" fill="#1C2024"/>
<path d="M29.6313 22L29.3913 20.84V15.74C29.3913 15.2733 29.2246 14.94 28.8913 14.74C28.558 14.54 28.1446 14.44 27.6513 14.44C27.1313 14.44 26.578 14.54 25.9913 14.74C25.4046 14.9267 24.9113 15.16 24.5113 15.44L23.2313 13.32C24.018 12.8 24.778 12.44 25.5113 12.24C26.258 12.0267 27.058 11.92 27.9113 11.92C29.3113 11.92 30.4046 12.2667 31.1913 12.96C31.9913 13.64 32.3913 14.5667 32.3913 15.74V22H29.6313ZM26.8513 22.22C26.1446 22.22 25.498 22.0867 24.9113 21.82C24.338 21.54 23.878 21.1467 23.5313 20.64C23.198 20.1333 23.0313 19.5467 23.0313 18.88C23.0313 18.3067 23.1513 17.8067 23.3913 17.38C23.6446 16.9533 23.978 16.6267 24.3913 16.4C24.698 16.2267 25.0446 16.1 25.4313 16.02C25.818 15.94 26.2313 15.9 26.6713 15.9H29.6313V18.12H27.1113C26.9513 18.12 26.8046 18.1333 26.6713 18.16C26.5513 18.1867 26.4446 18.2333 26.3513 18.3C26.258 18.3667 26.1846 18.4533 26.1313 18.56C26.078 18.6533 26.0513 18.76 26.0513 18.88C26.0513 19.16 26.1646 19.3867 26.3913 19.56C26.6313 19.72 26.9446 19.8 27.3313 19.8C27.7046 19.8 28.0446 19.7267 28.3513 19.58C28.6713 19.42 28.9246 19.2067 29.1113 18.94C29.298 18.6733 29.3913 18.3667 29.3913 18.02L30.0313 19.72C29.778 20.4 29.4713 20.92 29.1113 21.28C28.7646 21.64 28.3913 21.8867 27.9913 22.02C27.6046 22.1533 27.2246 22.22 26.8513 22.22ZM34.4274 22V12.14H37.4474V14.46H37.0474C37.2074 13.7933 37.4607 13.28 37.8074 12.92C38.154 12.5467 38.5407 12.2867 38.9674 12.14C39.4074 11.9933 39.834 11.92 40.2474 11.92C41.394 11.92 42.2874 12.24 42.9274 12.88C43.5674 13.5067 43.8874 14.36 43.8874 15.44V22H40.8674V16.56C40.8674 15.8533 40.7407 15.34 40.4874 15.02C40.2474 14.7 39.854 14.54 39.3074 14.54C38.8807 14.54 38.5274 14.64 38.2474 14.84C37.9807 15.04 37.7807 15.3533 37.6474 15.78C37.514 16.1933 37.4474 16.7333 37.4474 17.4V22H34.4274ZM49.5308 22.22C48.6642 22.22 47.9575 22.0533 47.4108 21.72C46.8642 21.3733 46.4642 20.9 46.2108 20.3C45.9575 19.7 45.8308 19.0133 45.8308 18.24V12.14H48.8508V17.62C48.8508 17.94 48.8842 18.2533 48.9508 18.56C49.0175 18.8533 49.1642 19.1 49.3908 19.3C49.6175 19.5 49.9708 19.6 50.4508 19.6C51.0642 19.6 51.4908 19.4133 51.7308 19.04C51.9842 18.6667 52.1375 18.16 52.1908 17.52C52.2442 16.88 52.2708 16.1733 52.2708 15.4V12.14H55.2908V22H52.2708V19.84L52.5708 20.18C52.2508 20.9533 51.8175 21.4867 51.2708 21.78C50.7375 22.0733 50.1575 22.22 49.5308 22.22ZM60.9943 22.22C60.2209 22.22 59.5543 22.1133 58.9943 21.9C58.4343 21.6733 57.9676 21.4067 57.5943 21.1C57.2209 20.7933 56.9143 20.52 56.6743 20.28L58.7143 18.48C58.9409 18.76 59.2343 19.0533 59.5943 19.36C59.9676 19.6667 60.4409 19.82 61.0143 19.82C61.4143 19.82 61.7209 19.7467 61.9343 19.6C62.1476 19.44 62.2543 19.2733 62.2543 19.1C62.2543 18.94 62.1809 18.8067 62.0343 18.7C61.8876 18.5933 61.6943 18.5 61.4543 18.42C61.2143 18.3267 60.9409 18.24 60.6343 18.16C60.2609 18.0533 59.8676 17.9333 59.4543 17.8C59.0543 17.6533 58.6743 17.4667 58.3143 17.24C57.9676 17 57.6809 16.7 57.4543 16.34C57.2409 15.98 57.1343 15.5267 57.1343 14.98C57.1343 14.06 57.4876 13.32 58.1943 12.76C58.9143 12.2 59.8609 11.92 61.0343 11.92C61.8476 11.92 62.5809 12.0733 63.2343 12.38C63.9009 12.6867 64.4276 13.1267 64.8143 13.7L62.9743 15.18C62.7343 14.86 62.4343 14.6067 62.0743 14.42C61.7143 14.2333 61.3409 14.14 60.9543 14.14C60.6609 14.14 60.4209 14.1933 60.2343 14.3C60.0476 14.4067 59.9543 14.54 59.9543 14.7C59.9543 14.8067 59.9943 14.9 60.0743 14.98C60.1676 15.06 60.3276 15.14 60.5543 15.22C60.7809 15.2867 61.0943 15.3733 61.4943 15.48C61.8809 15.5733 62.2876 15.6867 62.7143 15.82C63.1409 15.9533 63.5409 16.14 63.9143 16.38C64.3009 16.6067 64.6143 16.9133 64.8543 17.3C65.0943 17.6867 65.2143 18.1733 65.2143 18.76C65.2143 19.44 65.0343 20.04 64.6743 20.56C64.3276 21.08 63.8343 21.4867 63.1943 21.78C62.5676 22.0733 61.8343 22.22 60.9943 22.22ZM66.9274 22V8.06H69.9474V14.46H69.5474C69.7074 13.7933 69.9607 13.28 70.3074 12.92C70.654 12.5467 71.0407 12.2867 71.4674 12.14C71.9074 11.9933 72.334 11.92 72.7474 11.92C73.894 11.92 74.7874 12.24 75.4274 12.88C76.0674 13.5067 76.3874 14.36 76.3874 15.44V22H73.3674V16.56C73.3674 15.8533 73.2407 15.34 72.9874 15.02C72.7474 14.7 72.354 14.54 71.8074 14.54C71.1674 14.54 70.694 14.7733 70.3874 15.24C70.094 15.6933 69.9474 16.4133 69.9474 17.4V22H66.9274ZM85.0908 22L82.5308 17.88L81.2508 19.38V15.64L84.5108 12.14H88.3308L84.7308 15.86L88.6708 22H85.0908ZM78.4508 22V8.06H81.4708V22H78.4508ZM95.9789 22L95.7389 20.84V15.74C95.7389 15.2733 95.5723 14.94 95.2389 14.74C94.9056 14.54 94.4923 14.44 93.9989 14.44C93.4789 14.44 92.9256 14.54 92.3389 14.74C91.7523 14.9267 91.2589 15.16 90.8589 15.44L89.5789 13.32C90.3656 12.8 91.1256 12.44 91.8589 12.24C92.6056 12.0267 93.4056 11.92 94.2589 11.92C95.6589 11.92 96.7523 12.2667 97.5389 12.96C98.3389 13.64 98.7389 14.5667 98.7389 15.74V22H95.9789ZM93.1989 22.22C92.4923 22.22 91.8456 22.0867 91.2589 21.82C90.6856 21.54 90.2256 21.1467 89.8789 20.64C89.5456 20.1333 89.3789 19.5467 89.3789 18.88C89.3789 18.3067 89.4989 17.8067 89.7389 17.38C89.9923 16.9533 90.3256 16.6267 90.7389 16.4C91.0456 16.2267 91.3923 16.1 91.7789 16.02C92.1656 15.94 92.5789 15.9 93.0189 15.9H95.9789V18.12H93.4589C93.2989 18.12 93.1523 18.1333 93.0189 18.16C92.8989 18.1867 92.7923 18.2333 92.6989 18.3C92.6056 18.3667 92.5323 18.4533 92.4789 18.56C92.4256 18.6533 92.3989 18.76 92.3989 18.88C92.3989 19.16 92.5123 19.3867 92.7389 19.56C92.9789 19.72 93.2923 19.8 93.6789 19.8C94.0523 19.8 94.3923 19.7267 94.6989 19.58C95.0189 19.42 95.2723 19.2067 95.4589 18.94C95.6456 18.6733 95.7389 18.3667 95.7389 18.02L96.3789 19.72C96.1256 20.4 95.8189 20.92 95.4589 21.28C95.1123 21.64 94.7389 21.8867 94.3389 22.02C93.9523 22.1533 93.5723 22.22 93.1989 22.22ZM106.975 22L106.735 20.84V15.74C106.735 15.2733 106.568 14.94 106.235 14.74C105.902 14.54 105.488 14.44 104.995 14.44C104.475 14.44 103.922 14.54 103.335 14.74C102.748 14.9267 102.255 15.16 101.855 15.44L100.575 13.32C101.362 12.8 102.122 12.44 102.855 12.24C103.602 12.0267 104.402 11.92 105.255 11.92C106.655 11.92 107.748 12.2667 108.535 12.96C109.335 13.64 109.735 14.5667 109.735 15.74V22H106.975ZM104.195 22.22C103.488 22.22 102.842 22.0867 102.255 21.82C101.682 21.54 101.222 21.1467 100.875 20.64C100.542 20.1333 100.375 19.5467 100.375 18.88C100.375 18.3067 100.495 17.8067 100.735 17.38C100.988 16.9533 101.322 16.6267 101.735 16.4C102.042 16.2267 102.388 16.1 102.775 16.02C103.162 15.94 103.575 15.9 104.015 15.9H106.975V18.12H104.455C104.295 18.12 104.148 18.1333 104.015 18.16C103.895 18.1867 103.788 18.2333 103.695 18.3C103.602 18.3667 103.528 18.4533 103.475 18.56C103.422 18.6533 103.395 18.76 103.395 18.88C103.395 19.16 103.508 19.3867 103.735 19.56C103.975 19.72 104.288 19.8 104.675 19.8C105.048 19.8 105.388 19.7267 105.695 19.58C106.015 19.42 106.268 19.2067 106.455 18.94C106.642 18.6733 106.735 18.3667 106.735 18.02L107.375 19.72C107.122 20.4 106.815 20.92 106.455 21.28C106.108 21.64 105.735 21.8867 105.335 22.02C104.948 22.1533 104.568 22.22 104.195 22.22ZM116.051 26.3C114.544 26.3 113.358 26.0333 112.491 25.5C111.638 24.98 111.211 24.2667 111.211 23.36C111.211 23.2667 111.218 23.16 111.231 23.04C111.244 22.9333 111.264 22.82 111.291 22.7L114.271 21.02L114.911 21.9L113.751 23.32C113.738 23.3467 113.731 23.3667 113.731 23.38C113.731 23.4067 113.731 23.4333 113.731 23.46C113.731 23.7133 113.931 23.92 114.331 24.08C114.744 24.24 115.318 24.32 116.051 24.32C116.638 24.32 117.064 24.2467 117.331 24.1C117.598 23.9667 117.731 23.7933 117.731 23.58C117.731 23.4733 117.698 23.3867 117.631 23.32C117.578 23.2533 117.464 23.1933 117.291 23.14C117.131 23.0867 116.898 23.0333 116.591 22.98C116.284 22.94 115.891 22.8933 115.411 22.84C114.798 22.7733 114.191 22.6467 113.591 22.46C112.991 22.2867 112.491 22.02 112.091 21.66C111.691 21.2867 111.491 20.7933 111.491 20.18C111.491 19.62 111.678 19.1067 112.051 18.64C112.438 18.1733 112.944 17.7933 113.571 17.5L114.831 18.64C114.551 18.6667 114.318 18.76 114.131 18.92C113.958 19.08 113.871 19.2667 113.871 19.48C113.871 19.6667 113.951 19.8133 114.111 19.92C114.284 20.0267 114.524 20.1067 114.831 20.16C115.138 20.2133 115.498 20.2667 115.911 20.32C116.631 20.4 117.284 20.4933 117.871 20.6C118.471 20.7067 118.984 20.86 119.411 21.06C119.838 21.2467 120.164 21.5133 120.391 21.86C120.618 22.1933 120.731 22.6333 120.731 23.18C120.731 24.1933 120.331 24.9667 119.531 25.5C118.731 26.0333 117.571 26.3 116.051 26.3ZM115.871 19.46C115.004 19.46 114.244 19.3 113.591 18.98C112.951 18.6467 112.451 18.2 112.091 17.64C111.731 17.08 111.551 16.44 111.551 15.72C111.551 14.9467 111.744 14.28 112.131 13.72C112.518 13.1467 113.031 12.7067 113.671 12.4C114.324 12.08 115.024 11.92 115.771 11.92C116.518 11.92 117.211 12.08 117.851 12.4C118.504 12.7067 119.031 13.1533 119.431 13.74C119.831 14.3267 120.031 15.02 120.031 15.82C120.031 16.5533 119.858 17.1933 119.511 17.74C119.164 18.2867 118.678 18.7133 118.051 19.02C117.424 19.3133 116.698 19.46 115.871 19.46ZM115.811 17.1C116.251 17.1 116.564 16.9667 116.751 16.7C116.938 16.42 117.031 16.0933 117.031 15.72C117.031 15.3333 116.924 15.02 116.711 14.78C116.498 14.54 116.198 14.42 115.811 14.42C115.411 14.42 115.104 14.54 114.891 14.78C114.678 15.02 114.571 15.3333 114.571 15.72C114.571 16.0933 114.664 16.42 114.851 16.7C115.038 16.9667 115.358 17.1 115.811 17.1ZM119.351 14.38L117.171 13L119.591 11.1L121.131 12.96L119.351 14.38Z" fill="#1C2024"/>
</svg>
