<svg width="1280" height="208" viewBox="0 0 1280 208" fill="none" xmlns="http://www.w3.org/2000/svg">
<g clip-path="url(#clip0_1_288)">
<path d="M165.664 57.6664V49.6664H173.664V57.6664H165.664Z" fill="#E0E1E6"/>
<path d="M165.664 7.66681V-0.333191H173.664V7.66681H165.664Z" fill="#E0E1E6"/>
<path d="M165.664 157.666V149.666H173.664V157.666H165.664Z" fill="#E0E1E6"/>
<path d="M165.664 107.666V99.6664H173.664V107.666H165.664Z" fill="#E0E1E6"/>
<path d="M15.6641 57.6664V49.6664H23.6641V57.6664H15.6641Z" fill="#E0E1E6"/>
<path d="M15.6641 7.66681V-0.333191H23.6641V7.66681H15.6641Z" fill="#E0E1E6"/>
<path d="M15.6641 157.666V149.666H23.6641V157.666H15.6641Z" fill="#E0E1E6"/>
<path d="M15.6641 107.666V99.6664H23.6641V107.666H15.6641Z" fill="#E0E1E6"/>
<path d="M265.664 57.6664V49.6664H273.664V57.6664H265.664Z" fill="#E0E1E6"/>
<path d="M265.664 207.666V199.666H273.664V207.666H265.664Z" fill="#E0E1E6"/>
<path d="M216 208V200H224V208H216Z" fill="#E0E1E6"/>
<path d="M166 208V200H174V208H166Z" fill="#E0E1E6"/>
<path d="M116 208V200H124V208H116Z" fill="#E0E1E6"/>
<path d="M66 208V200H74V208H66Z" fill="#E0E1E6"/>
<path d="M16 208V200H24V208H16Z" fill="#E0E1E6"/>
<path d="M265.664 7.66681V-0.333191H273.664V7.66681H265.664Z" fill="#E0E1E6"/>
<path d="M265.664 157.666V149.666H273.664V157.666H265.664Z" fill="#E0E1E6"/>
<path d="M265.664 107.666V99.6664H273.664V107.666H265.664Z" fill="#E0E1E6"/>
<path d="M115.664 57.6664V49.6664H123.664V57.6664H115.664Z" fill="#E0E1E6"/>
<path d="M115.664 7.66681V-0.333191H123.664V7.66681H115.664Z" fill="#E0E1E6"/>
<path d="M115.664 157.666V149.666H123.664V157.666H115.664Z" fill="#E0E1E6"/>
<path d="M115.664 107.666V99.6664H123.664V107.666H115.664Z" fill="#E0E1E6"/>
<path d="M215.664 57.6664V49.6664H223.664V57.6664H215.664Z" fill="#E0E1E6"/>
<path d="M215.664 7.66681V-0.333191H223.664V7.66681H215.664Z" fill="#E0E1E6"/>
<path d="M215.664 157.666V149.666H223.664V157.666H215.664Z" fill="#E0E1E6"/>
<path d="M215.664 107.666V99.6664H223.664V107.666H215.664Z" fill="#E0E1E6"/>
<path d="M65.6641 57.6664V49.6664H73.6641V57.6664H65.6641Z" fill="#E0E1E6"/>
<path d="M65.6641 7.66681V-0.333191H73.6641V7.66681H65.6641Z" fill="#E0E1E6"/>
<path d="M65.6641 157.666V149.666H73.6641V157.666H65.6641Z" fill="#E0E1E6"/>
<path d="M65.6641 107.666V99.6664H73.6641V107.666H65.6641Z" fill="#E0E1E6"/>
<path d="M321 199.666V207.666H317V199.666H321Z" fill="#E0E1E6"/>
<path d="M321 149.666V157.666H317V149.666H321Z" fill="#E0E1E6"/>
<path d="M321 99.6664V107.666H317V99.6664H321Z" fill="#E0E1E6"/>
<path d="M321 49.6664V57.6664H317V49.6664H321Z" fill="#E0E1E6"/>
<path d="M321 -0.333191V7.66681H317V-0.333191H321Z" fill="#E0E1E6"/>
<path d="M565.664 57.6664V49.6664H573.664V57.6664H565.664Z" fill="#E0E1E6"/>
<path d="M565.664 207.666V199.666H573.664V207.666H565.664Z" fill="#E0E1E6"/>
<path d="M565.664 7.66681V-0.333191H573.664V7.66681H565.664Z" fill="#E0E1E6"/>
<path d="M565.664 157.666V149.666H573.664V157.666H565.664Z" fill="#E0E1E6"/>
<path d="M565.664 107.666V99.6664H573.664V107.666H565.664Z" fill="#E0E1E6"/>
<path d="M415.664 57.6664V49.6664H423.664V57.6664H415.664Z" fill="#E0E1E6"/>
<path d="M415.664 207.666V199.666H423.664V207.666H415.664Z" fill="#E0E1E6"/>
<path d="M415.664 7.66681V-0.333191H423.664V7.66681H415.664Z" fill="#E0E1E6"/>
<path d="M415.664 157.666V149.666H423.664V157.666H415.664Z" fill="#E0E1E6"/>
<path d="M415.664 107.666V99.6664H423.664V107.666H415.664Z" fill="#E0E1E6"/>
<path d="M665.664 57.6664V49.6664H673.664V57.6664H665.664Z" fill="#E0E1E6"/>
<path d="M665.664 207.666V199.666H673.664V207.666H665.664Z" fill="#E0E1E6"/>
<path d="M665.664 7.66681V-0.333191H673.664V7.66681H665.664Z" fill="#E0E1E6"/>
<path d="M665.664 157.666V149.666H673.664V157.666H665.664Z" fill="#E0E1E6"/>
<path d="M665.664 107.666V99.6664H673.664V107.666H665.664Z" fill="#E0E1E6"/>
<path d="M515.664 57.6664V49.6664H523.664V57.6664H515.664Z" fill="#E0E1E6"/>
<path d="M515.664 207.666V199.666H523.664V207.666H515.664Z" fill="#E0E1E6"/>
<path d="M515.664 7.66681V-0.333191H523.664V7.66681H515.664Z" fill="#E0E1E6"/>
<path d="M515.664 157.666V149.666H523.664V157.666H515.664Z" fill="#E0E1E6"/>
<path d="M515.664 107.666V99.6664H523.664V107.666H515.664Z" fill="#E0E1E6"/>
<path d="M365.664 57.6664V49.6664H373.664V57.6664H365.664Z" fill="#E0E1E6"/>
<path d="M365.664 207.666V199.666H373.664V207.666H365.664Z" fill="#E0E1E6"/>
<path d="M365.664 7.66681V-0.333191H373.664V7.66681H365.664Z" fill="#E0E1E6"/>
<path d="M365.664 157.666V149.666H373.664V157.666H365.664Z" fill="#E0E1E6"/>
<path d="M365.664 107.666V99.6664H373.664V107.666H365.664Z" fill="#E0E1E6"/>
<path d="M615.664 57.6664V49.6664H623.664V57.6664H615.664Z" fill="#E0E1E6"/>
<path d="M615.664 207.666V199.666H623.664V207.666H615.664Z" fill="#E0E1E6"/>
<path d="M615.664 7.66681V-0.333191H623.664V7.66681H615.664Z" fill="#E0E1E6"/>
<path d="M615.664 157.666V149.666H623.664V157.666H615.664Z" fill="#E0E1E6"/>
<path d="M615.664 107.666V99.6664H623.664V107.666H615.664Z" fill="#E0E1E6"/>
<path d="M465.664 57.6664V49.6664H473.664V57.6664H465.664Z" fill="#E0E1E6"/>
<path d="M465.664 207.666V199.666H473.664V207.666H465.664Z" fill="#E0E1E6"/>
<path d="M465.664 7.66681V-0.333191H473.664V7.66681H465.664Z" fill="#E0E1E6"/>
<path d="M465.664 157.666V149.666H473.664V157.666H465.664Z" fill="#E0E1E6"/>
<path d="M465.664 107.666V99.6664H473.664V107.666H465.664Z" fill="#E0E1E6"/>
<path d="M321 7.66681V-0.333191H325V7.66681H321Z" fill="#E0E1E6"/>
<path d="M321 57.6664V49.6664H325V57.6664H321Z" fill="#E0E1E6"/>
<path d="M321 107.666V99.6664H325V107.666H321Z" fill="#E0E1E6"/>
<path d="M321 157.666V149.666H325V157.666H321Z" fill="#E0E1E6"/>
<path d="M321 207.666V199.666H325V207.666H321Z" fill="#E0E1E6"/>
<path d="M721 199.666V207.666H717V199.666H721Z" fill="#E0E1E6"/>
<path d="M721 149.666V157.666H717V149.666H721Z" fill="#E0E1E6"/>
<path d="M721 99.6664V107.666H717V99.6664H721Z" fill="#E0E1E6"/>
<path d="M721 49.6664V57.6664H717V49.6664H721Z" fill="#E0E1E6"/>
<path d="M721 -0.333191V7.66681H717V-0.333191H721Z" fill="#E0E1E6"/>
<path d="M965.664 57.6664V49.6664H973.664V57.6664H965.664Z" fill="#E0E1E6"/>
<path d="M965.664 207.666V199.666H973.664V207.666H965.664Z" fill="#E0E1E6"/>
<path d="M965.664 7.66681V-0.333191H973.664V7.66681H965.664Z" fill="#E0E1E6"/>
<path d="M965.664 157.666V149.666H973.664V157.666H965.664Z" fill="#E0E1E6"/>
<path d="M965.664 107.666V99.6664H973.664V107.666H965.664Z" fill="#E0E1E6"/>
<path d="M815.664 57.6664V49.6664H823.664V57.6664H815.664Z" fill="#E0E1E6"/>
<path d="M815.664 207.666V199.666H823.664V207.666H815.664Z" fill="#E0E1E6"/>
<path d="M815.664 7.66681V-0.333191H823.664V7.66681H815.664Z" fill="#E0E1E6"/>
<path d="M815.664 157.666V149.666H823.664V157.666H815.664Z" fill="#E0E1E6"/>
<path d="M815.664 107.666V99.6664H823.664V107.666H815.664Z" fill="#E0E1E6"/>
<path d="M1065.66 57.6664V49.6664H1073.66V57.6664H1065.66Z" fill="#E0E1E6"/>
<path d="M1065.66 207.666V199.666H1073.66V207.666H1065.66Z" fill="#E0E1E6"/>
<path d="M1065.66 7.66681V-0.333191H1073.66V7.66681H1065.66Z" fill="#E0E1E6"/>
<path d="M1065.66 157.666V149.666H1073.66V157.666H1065.66Z" fill="#E0E1E6"/>
<path d="M1065.66 107.666V99.6664H1073.66V107.666H1065.66Z" fill="#E0E1E6"/>
<path d="M915.664 57.6664V49.6664H923.664V57.6664H915.664Z" fill="#E0E1E6"/>
<path d="M915.664 207.666V199.666H923.664V207.666H915.664Z" fill="#E0E1E6"/>
<path d="M915.664 7.66681V-0.333191H923.664V7.66681H915.664Z" fill="#E0E1E6"/>
<path d="M915.664 157.666V149.666H923.664V157.666H915.664Z" fill="#E0E1E6"/>
<path d="M915.664 107.666V99.6664H923.664V107.666H915.664Z" fill="#E0E1E6"/>
<path d="M765.664 57.6664V49.6664H773.664V57.6664H765.664Z" fill="#E0E1E6"/>
<path d="M765.664 207.666V199.666H773.664V207.666H765.664Z" fill="#E0E1E6"/>
<path d="M765.664 7.66681V-0.333191H773.664V7.66681H765.664Z" fill="#E0E1E6"/>
<path d="M765.664 157.666V149.666H773.664V157.666H765.664Z" fill="#E0E1E6"/>
<path d="M765.664 107.666V99.6664H773.664V107.666H765.664Z" fill="#E0E1E6"/>
<path d="M1015.66 57.6664V49.6664H1023.66V57.6664H1015.66Z" fill="#E0E1E6"/>
<path d="M1015.66 207.666V199.666H1023.66V207.666H1015.66Z" fill="#E0E1E6"/>
<path d="M1015.66 7.66681V-0.333191H1023.66V7.66681H1015.66Z" fill="#E0E1E6"/>
<path d="M1015.66 157.666V149.666H1023.66V157.666H1015.66Z" fill="#E0E1E6"/>
<path d="M1015.66 107.666V99.6664H1023.66V107.666H1015.66Z" fill="#E0E1E6"/>
<path d="M865.664 57.6664V49.6664H873.664V57.6664H865.664Z" fill="#E0E1E6"/>
<path d="M865.664 207.666V199.666H873.664V207.666H865.664Z" fill="#E0E1E6"/>
<path d="M865.664 7.66681V-0.333191H873.664V7.66681H865.664Z" fill="#E0E1E6"/>
<path d="M865.664 157.666V149.666H873.664V157.666H865.664Z" fill="#E0E1E6"/>
<path d="M865.664 107.666V99.6664H873.664V107.666H865.664Z" fill="#E0E1E6"/>
<path d="M721 7.66681V-0.333191H725V7.66681H721Z" fill="#E0E1E6"/>
<path d="M721 57.6664V49.6664H725V57.6664H721Z" fill="#E0E1E6"/>
<path d="M721 107.666V99.6664H725V107.666H721Z" fill="#E0E1E6"/>
<path d="M721 157.666V149.666H725V157.666H721Z" fill="#E0E1E6"/>
<path d="M721 207.666V199.666H725V207.666H721Z" fill="#E0E1E6"/>
<path d="M1121 199.666V207.666H1117V199.666H1121Z" fill="#E0E1E6"/>
<path d="M1121 149.666V157.666H1117V149.666H1121Z" fill="#E0E1E6"/>
<path d="M1121 99.6664V107.666H1117V99.6664H1121Z" fill="#E0E1E6"/>
<path d="M1121 49.6664V57.6664H1117V49.6664H1121Z" fill="#E0E1E6"/>
<path d="M1121 -0.333191V7.66681H1117V-0.333191H1121Z" fill="#E0E1E6"/>
<path d="M1215.66 57.6664V49.6664H1223.66V57.6664H1215.66Z" fill="#E0E1E6"/>
<path d="M1215.66 207.666V199.666H1223.66V207.666H1215.66Z" fill="#E0E1E6"/>
<path d="M1215.66 7.66681V-0.333191H1223.66V7.66681H1215.66Z" fill="#E0E1E6"/>
<path d="M1215.66 157.666V149.666H1223.66V157.666H1215.66Z" fill="#E0E1E6"/>
<path d="M1215.66 107.666V99.6664H1223.66V107.666H1215.66Z" fill="#E0E1E6"/>
<path d="M1165.66 57.6664V49.6664H1173.66V57.6664H1165.66Z" fill="#E0E1E6"/>
<path d="M1165.66 207.666V199.666H1173.66V207.666H1165.66Z" fill="#E0E1E6"/>
<path d="M1165.66 7.66681V-0.333191H1173.66V7.66681H1165.66Z" fill="#E0E1E6"/>
<path d="M1165.66 157.666V149.666H1173.66V157.666H1165.66Z" fill="#E0E1E6"/>
<path d="M1165.66 107.666V99.6664H1173.66V107.666H1165.66Z" fill="#E0E1E6"/>
<path d="M1265.66 57.6664V49.6664H1273.66V57.6664H1265.66Z" fill="#E0E1E6"/>
<path d="M1265.66 207.666V199.666H1273.66V207.666H1265.66Z" fill="#E0E1E6"/>
<path d="M1265.66 7.66681V-0.333191H1273.66V7.66681H1265.66Z" fill="#E0E1E6"/>
<path d="M1265.66 157.666V149.666H1273.66V157.666H1265.66Z" fill="#E0E1E6"/>
<path d="M1265.66 107.666V99.6664H1273.66V107.666H1265.66Z" fill="#E0E1E6"/>
<path d="M1121 7.66681V-0.333191H1125V7.66681H1121Z" fill="#E0E1E6"/>
<path d="M1121 57.6664V49.6664H1125V57.6664H1121Z" fill="#E0E1E6"/>
<path d="M1121 107.666V99.6664H1125V107.666H1121Z" fill="#E0E1E6"/>
<path d="M1121 157.666V149.666H1125V157.666H1121Z" fill="#E0E1E6"/>
<path d="M1121 207.666V199.666H1125V207.666H1121Z" fill="#E0E1E6"/>
</g>
<defs>
<clipPath id="clip0_1_288">
<rect width="1280" height="208" fill="white"/>
</clipPath>
</defs>
</svg>
