<svg width="463" height="17" viewBox="0 0 463 17" fill="none" xmlns="http://www.w3.org/2000/svg">
<path d="M102.967 12.685C106.192 9.96465 109.776 6.92541 113.662 4.72858" stroke="#ABC978" stroke-width="5" stroke-miterlimit="1.5" stroke-linecap="round" stroke-linejoin="round"/>
<path d="M119.561 11.8157C122.906 8.71119 126.803 4.9692 131.505 3" stroke="#ABC978" stroke-width="5" stroke-miterlimit="1.5" stroke-linecap="round" stroke-linejoin="round"/>
<path d="M130.624 12.5539C133.178 10.0185 136.151 6.91506 139.68 5.07428" stroke="#ABC978" stroke-width="5" stroke-miterlimit="1.5" stroke-linecap="round" stroke-linejoin="round"/>
<path d="M144.664 12.9671C147.834 10.2765 151.06 7.4678 154.63 5.07428" stroke="#ABC978" stroke-width="5" stroke-miterlimit="1.5" stroke-linecap="round" stroke-linejoin="round"/>
<path d="M158.493 13.0827C161.668 10.3993 164.684 7.48354 168.231 5.07428" stroke="#ABC978" stroke-width="5" stroke-miterlimit="1.5" stroke-linecap="round" stroke-linejoin="round"/>
<path d="M169.556 13.783C173.055 10.7008 176.727 7.84665 180.634 5.07428" stroke="#ABC978" stroke-width="5" stroke-miterlimit="1.5" stroke-linecap="round" stroke-linejoin="round"/>
<path d="M180.829 13.105C184.227 10.3078 187.516 7.23224 191.307 4.72858" stroke="#ABC978" stroke-width="5" stroke-miterlimit="1.5" stroke-linecap="round" stroke-linejoin="round"/>
<path d="M194.659 13.3516C197.243 10.9781 200.613 7.61629 204.278 6.13782" stroke="#ABC978" stroke-width="5" stroke-miterlimit="1.5" stroke-linecap="round" stroke-linejoin="round"/>
<path d="M205.567 13.7599C208.492 10.6164 212.526 6.95291 217.018 5.03174" stroke="#ABC978" stroke-width="5" stroke-miterlimit="1.5" stroke-linecap="round" stroke-linejoin="round"/>
<path d="M216.777 13.3434C220.415 10.7096 224.077 8.12334 228.052 5.79211" stroke="#ABC978" stroke-width="5" stroke-miterlimit="1.5" stroke-linecap="round" stroke-linejoin="round"/>
<path d="M230.824 13.2632C234.109 10.59 238.099 8.45071 241.419 5.79211" stroke="#ABC978" stroke-width="5" stroke-miterlimit="1.5" stroke-linecap="round" stroke-linejoin="round"/>
<path d="M247.413 12.4667C250.592 9.9061 254.063 7.29526 257.672 5.07422" stroke="#ABC978" stroke-width="5" stroke-miterlimit="1.5" stroke-linecap="round" stroke-linejoin="round"/>
<path d="M261.46 12.3283C264.033 9.43898 267.102 6.6425 270.606 4.38281" stroke="#ABC978" stroke-width="5" stroke-miterlimit="1.5" stroke-linecap="round" stroke-linejoin="round"/>
<path d="M272.517 12.5624C275.676 10.1083 278.896 7.48604 282.517 5.41992" stroke="#ABC978" stroke-width="5" stroke-miterlimit="1.5" stroke-linecap="round" stroke-linejoin="round"/>
<path d="M286.345 12.0616C289.432 9.40538 293.017 6.14829 297.429 4.72852" stroke="#ABC978" stroke-width="5" stroke-miterlimit="1.5" stroke-linecap="round" stroke-linejoin="round"/>
<path d="M300.174 11.3468C303.572 9.01316 306.975 6.27584 310.84 4.38281" stroke="#ABC978" stroke-width="5" stroke-miterlimit="1.5" stroke-linecap="round" stroke-linejoin="round"/>
<path d="M314.213 11.4644C317.848 8.98196 321.201 5.80049 325.201 3.69141" stroke="#ABC978" stroke-width="5" stroke-miterlimit="1.5" stroke-linecap="round" stroke-linejoin="round"/>
<path d="M325.275 12.0472C328.706 9.70874 331.933 6.74454 336.02 5.07422" stroke="#ABC978" stroke-width="5" stroke-miterlimit="1.5" stroke-linecap="round" stroke-linejoin="round"/>
<path d="M342.082 12.0798C344.901 9.61125 348.225 7.60954 350.947 5.07422" stroke="#ABC978" stroke-width="5" stroke-miterlimit="1.5" stroke-linecap="round" stroke-linejoin="round"/>
<path d="M353.146 12.9768C356.17 10.5694 359.245 8.05431 362.462 5.79211" stroke="#ABC978" stroke-width="5" stroke-miterlimit="1.5" stroke-linecap="round" stroke-linejoin="round"/>
<path d="M366.974 12.2083C370.139 9.39663 373.42 6.43366 377.141 4.03711" stroke="#ABC978" stroke-width="5" stroke-miterlimit="1.5" stroke-linecap="round" stroke-linejoin="round"/>
<path d="M378.036 12.3C381.299 9.80725 385.101 6.43333 389.192 4.72852" stroke="#ABC978" stroke-width="5" stroke-miterlimit="1.5" stroke-linecap="round" stroke-linejoin="round"/>
<path d="M392.076 12.2079C395.605 9.63117 399.57 6.86048 403.594 4.72858" stroke="#ABC978" stroke-width="5" stroke-miterlimit="1.5" stroke-linecap="round" stroke-linejoin="round"/>
<path d="M408.672 11.6706C411.913 8.87518 415.63 6.57305 419.572 4.38287" stroke="#ABC978" stroke-width="5" stroke-miterlimit="1.5" stroke-linecap="round" stroke-linejoin="round"/>
<path d="M422.711 10.7666C426.27 8.72769 429.81 6.65187 433.477 4.72858" stroke="#ABC978" stroke-width="5" stroke-miterlimit="1.5" stroke-linecap="round" stroke-linejoin="round"/>
<path d="M439.305 11.8865C442.26 9.71505 445.553 7.39108 449.108 5.79218" stroke="#ABC978" stroke-width="5" stroke-miterlimit="1.5" stroke-linecap="round" stroke-linejoin="round"/>
<path d="M450.368 11.8165C453.432 9.87743 456.629 8.07091 459.695 6.13794" stroke="#ABC978" stroke-width="5" stroke-miterlimit="1.5" stroke-linecap="round" stroke-linejoin="round"/>
</svg>
