<svg width="1440" height="87" viewBox="0 0 1440 87" fill="none" xmlns="http://www.w3.org/2000/svg">
<path d="M57.1801 29C57.1832 28.8275 57.1852 28.6551 57.1852 28.4821C57.1852 12.7517 44.3838 0 28.5933 0C12.8027 0 0.00135378 12.7517 0.00135378 28.4821C0.00135378 28.6551 -0.00169223 28.8275 0.00135378 29V87H1439.99L1440 29C1440 44.6982 1439.99 71.9821 1439.99 87C1439.99 69.3929 1440 44.7813 1440 29H1439.99C1439.99 28.8275 1440 28.6551 1440 28.4821C1440 12.7517 1426.96 0 1410.88 0C1394.81 0 1381.77 12.7517 1381.77 28.4821C1381.77 28.6551 1381.77 28.8275 1381.78 29H1381.77C1381.49 44.4917 1368.8 56.9643 1353.18 56.9643C1337.56 56.9643 1324.87 44.4917 1324.59 29H1324.58C1324.59 28.8275 1324.59 28.6551 1324.59 28.4821C1324.59 12.7517 1311.55 0 1295.48 0C1279.4 0 1266.36 12.7517 1266.36 28.4821C1266.36 28.6551 1266.37 28.8275 1266.37 29H1266.36C1266.08 44.4917 1253.39 56.9643 1237.77 56.9643C1222.16 56.9643 1209.46 44.4917 1209.19 29H1209.18C1209.18 28.8275 1209.18 28.6551 1209.18 28.4821C1209.18 12.7517 1196.38 0 1180.59 0C1164.8 0 1152 12.7517 1152 28.4821C1152 28.6551 1152 28.8275 1152 29H1151.99C1151.71 44.4917 1138.79 56.9643 1122.88 56.9643C1106.98 56.9643 1094.06 44.4917 1093.78 29H1093.77C1093.77 28.8275 1093.77 28.6551 1093.77 28.4821C1093.77 12.7517 1080.97 0 1065.18 0C1049.39 0 1036.59 12.7517 1036.59 28.4821C1036.59 28.6551 1036.59 28.8275 1036.59 29H1036.58C1036.31 44.4917 1023.61 56.9643 1008 56.9643C992.38 56.9643 979.687 44.4917 979.41 29H979.4C979.403 28.8275 979.405 28.6551 979.405 28.4821C979.405 12.7517 966.371 0 950.293 0C934.215 0 921.181 12.7517 921.181 28.4821C921.181 28.6551 921.183 28.8275 921.186 29H921.176C920.899 44.4917 908.206 56.9643 892.589 56.9643C876.973 56.9643 864.28 44.4917 864.003 29H863.992C863.995 28.8275 863.998 28.6551 863.998 28.4821C863.998 12.7517 850.964 0 834.886 0C818.808 0 805.774 12.7517 805.774 28.4821C805.774 28.6551 805.776 28.8275 805.779 29H805.769C805.492 44.4917 792.799 56.9643 777.182 56.9643C761.565 56.9643 748.872 44.4917 748.595 29H748.585C748.588 28.8275 748.59 28.6551 748.59 28.4821C748.59 12.7517 735.789 0 719.998 0C704.208 0 691.406 12.7517 691.406 28.4821C691.406 28.6551 691.408 28.8275 691.411 29H691.401C691.119 44.4917 678.196 56.9643 662.294 56.9643C646.393 56.9643 633.47 44.4917 633.188 29H633.178C633.181 28.8275 633.183 28.6551 633.183 28.4821C633.183 12.7517 620.381 0 604.591 0C588.8 0 575.999 12.7517 575.999 28.4821C575.999 28.6551 576.001 28.8275 576.004 29H575.994C575.711 44.4917 562.788 56.9643 546.887 56.9643C530.986 56.9643 518.063 44.4917 517.78 29H517.77C517.773 28.8275 517.775 28.6551 517.775 28.4821C517.775 12.7517 504.974 0 489.183 0C473.393 0 460.591 12.7517 460.591 28.4821C460.591 28.6551 460.593 28.8275 460.596 29H460.586C460.309 44.4917 447.616 56.9643 431.999 56.9643C416.383 56.9643 403.69 44.4917 403.413 29H403.402C403.405 28.8275 403.408 28.6551 403.408 28.4821C403.408 12.7517 390.374 0 374.296 0C358.218 0 345.184 12.7517 345.184 28.4821C345.184 28.6551 345.186 28.8275 345.189 29H345.179C344.902 44.4917 332.209 56.9643 316.592 56.9643C300.975 56.9643 288.282 44.4917 288.005 29H287.995C287.998 28.8275 288 28.6551 288 28.4821C288 12.7517 275.199 0 259.408 0C243.618 0 230.816 12.7517 230.816 28.4821C230.816 28.6551 230.818 28.8275 230.821 29H230.811C230.529 44.4917 217.606 56.9643 201.704 56.9643C185.803 56.9643 172.88 44.4917 172.598 29H172.588C172.591 28.8275 172.593 28.6551 172.593 28.4821C172.593 12.7517 159.791 0 144.001 0C128.21 0 115.409 12.7517 115.409 28.4821C115.409 28.6551 115.411 28.8275 115.414 29H115.404C115.121 44.4917 102.198 56.9643 86.297 56.9643C70.3958 56.9643 57.4726 44.4917 57.1903 29H57.1801Z" fill="#F0F0F3"/>
</svg>
